<?xml version="1.0" encoding="utf-8"?>
<!-- Generator: Adobe Illustrator 16.0.0, SVG Export Plug-In . SVG Version: 6.00 Build 0)  -->
<!DOCTYPE svg PUBLIC "-//W3C//DTD SVG 1.1//EN" "http://www.w3.org/Graphics/SVG/1.1/DTD/svg11.dtd">
<svg version="1.1" id="Lager_1" xmlns="http://www.w3.org/2000/svg" xmlns:xlink="http://www.w3.org/1999/xlink" x="0px" y="0px"
	 width="283.46px" height="85.04px" viewBox="0 0 283.46 85.04" enable-background="new 0 0 283.46 85.04" xml:space="preserve">
<g>
	<path fill="#003097" d="M21.97,19.012h19.859c10.2,0,18.839,4.32,18.839,15.72c0,6.839-2.64,9.72-8.76,11.759v0.36
		c0.84,0.66,1.86,1.38,2.76,2.7l9.84,14.699H45.549l-7.2-14.52h-0.3v14.52H21.97V19.012z M38.049,39.051h1.14
		c2.7,0,5.4-0.42,5.4-3.78c0-3.479-2.46-3.9-5.28-3.9h-1.26V39.051z"/>
	<path fill="#003097" d="M67.149,19.012h30.418v12.359H83.708v4.32h12.66v11.76h-12.66v4.439h14.339V64.25H67.149V19.012z"/>
	<path fill="#003097" d="M104.949,19.012h16.439V64.25h-16.439V19.012z"/>
	<path fill="#003097" d="M128.769,19.012h15.779l14.76,25.079h0.48c-0.66-3.78-1.38-7.68-1.38-11.52v-13.56h15.719V64.25h-15.719
		l-14.46-23.759h-0.479c0.539,3.12,1.02,6.06,1.02,9.06V64.25h-15.72V19.012z"/>
	<path fill="#003097" d="M194.647,64.25h-17.399l15.72-45.238h18.18l16.139,45.238h-17.399l-1.5-5.64h-12.419L194.647,64.25z
		 M205.507,47.871l-1.92-7.98c-0.479-1.92-0.779-3.9-1.079-5.82h-0.601l-3,13.8H205.507z"/>
	<path fill="#003097" d="M230.708,19.012h16.439V49.73h13.8v14.52h-30.239V19.012z"/>
</g>
</svg>
